<?xml version="1.0" encoding="UTF-8"?>
<svg width="256" height="256" viewBox="0 0 1391 1391" fill="none" xmlns="http://www.w3.org/2000/svg" role="img" aria-label="Rubber duck line icon">
  <path d="M 658.0 35.0 L 704.0 36.0 L 755.0 46.0 L 799.0 62.0 L 837.0 83.0 L 914.0 143.0 L 949.0 182.0 L 971.0 215.0 L 992.0 258.0 L 1005.0 300.0 L 1013.0 343.0 L 1012.0 394.0 L 998.0 464.0 L 972.0 523.0 L 951.0 553.0 L 952.0 560.0 L 1063.0 608.0 L 1145.0 630.0 L 1180.0 631.0 L 1261.0 613.0 L 1302.0 617.0 L 1329.0 630.0 L 1347.0 649.0 L 1359.0 668.0 L 1357.0 672.0 L 1362.0 674.0 L 1378.0 734.0 L 1380.0 817.0 L 1372.0 873.0 L 1350.0 946.0 L 1331.0 996.0 L 1303.0 1047.0 L 1241.0 1135.0 L 1201.0 1182.0 L 1139.0 1244.0 L 1069.0 1293.0 L 983.0 1337.0 L 935.0 1353.0 L 856.0 1369.0 L 797.0 1374.0 L 712.0 1374.0 L 629.0 1367.0 L 560.0 1354.0 L 432.0 1317.0 L 354.0 1285.0 L 301.0 1256.0 L 198.0 1184.0 L 137.0 1128.0 L 89.0 1070.0 L 54.0 1009.0 L 32.0 953.0 L 12.0 848.0 L 12.0 787.0 L 16.0 765.0 L 30.0 715.0 L 47.0 674.0 L 80.0 612.0 L 122.0 562.0 L 198.0 504.0 L 302.0 451.0 L 285.0 423.0 L 248.0 383.0 L 216.0 338.0 L 172.0 256.0 L 169.0 236.0 L 163.0 226.0 L 160.0 179.0 L 165.0 226.0 L 178.0 268.0 L 185.0 276.0 L 173.0 244.0 L 164.0 199.0 L 164.0 171.0 L 177.0 134.0 L 200.0 103.0 L 240.0 79.0 L 293.0 76.0 L 329.0 85.0 L 299.0 74.0 L 249.0 73.0 L 215.0 87.0 L 202.0 97.0 L 224.0 81.0 L 247.0 73.0 L 298.0 73.0 L 403.0 105.0 L 433.0 106.0 L 488.0 90.0 L 512.0 72.0 L 556.0 54.0 L 626.0 38.0 L 657.0 36.0 L 658.0 35.0 Z" stroke="#111111" stroke-width="20" stroke-linecap="round" stroke-linejoin="round"/>
  <path d="M 253.0 76.0 L 301.0 77.0 L 408.0 108.0 L 447.0 106.0 L 472.0 95.0 L 490.0 91.0 L 479.0 108.0 L 455.0 135.0 L 448.0 139.0 L 443.0 151.0 L 433.0 156.0 L 418.0 173.0 L 413.0 185.0 L 406.0 190.0 L 410.0 193.0 L 391.0 209.0 L 389.0 216.0 L 383.0 218.0 L 383.0 234.0 L 373.0 239.0 L 365.0 270.0 L 360.0 273.0 L 354.0 319.0 L 355.0 372.0 L 357.0 389.0 L 363.0 402.0 L 370.0 433.0 L 371.0 448.0 L 369.0 478.0 L 363.0 481.0 L 362.0 487.0 L 353.0 490.0 L 344.0 498.0 L 337.0 495.0 L 324.0 476.0 L 315.0 470.0 L 314.0 464.0 L 300.0 447.0 L 287.0 423.0 L 265.0 400.0 L 227.0 346.0 L 218.0 338.0 L 218.0 333.0 L 193.0 295.0 L 173.0 244.0 L 164.0 199.0 L 164.0 171.0 L 174.0 139.0 L 200.0 103.0 L 223.0 87.0 L 240.0 79.0 L 252.0 77.0 L 253.0 76.0 Z" stroke="#111111" stroke-width="16" stroke-linecap="round" stroke-linejoin="round"/>
  <circle cx="497.7" cy="322.1" r="25.2" stroke="#111111" stroke-width="12" fill="none"/>
  <circle cx="497.7" cy="322.1" r="13.9" fill="#111111"/>
  <circle cx="491.1" cy="315.0" r="4.5" fill="#FFFFFF"/>
</svg>
